<svg fill="none" xmlns="http://www.w3.org/2000/svg" viewBox="0 0 400 300"><path d="M322.869 65.213c0-13.843-11.222-25.065-25.065-25.065-13.844 0-25.066 11.222-25.066 25.065v133.683c0 13.843 11.222 25.065 25.066 25.065 13.843 0 25.065-11.222 25.065-25.065V65.213ZM218.012 65.213c0-13.843-11.222-25.065-25.066-25.065-13.843 0-25.065 11.222-25.065 25.065v133.683c0 13.843 11.222 25.065 25.065 25.065 13.844 0 25.066-11.222 25.066-25.065V65.213Z" stroke="#4F46E5" stroke-width="5" stroke-miterlimit="10"/><path d="M317.555 80.632c8.53-10.903 6.607-26.656-4.296-35.186-10.903-8.53-26.656-6.608-35.187 4.295L173.403 183.519c-8.531 10.903-6.607 26.657 4.295 35.187 10.903 8.53 26.657 6.607 35.187-4.295l104.67-133.779ZM212.597 80.636c8.53-10.902 6.607-26.656-4.295-35.186-10.903-8.53-26.657-6.608-35.187 4.295L68.445 183.523c-8.53 10.903-6.607 26.657 4.296 35.187 10.902 8.53 26.656 6.607 35.186-4.295l104.67-133.779Z" stroke="#4F46E5" stroke-width="5" stroke-miterlimit="10"/><rect x="223" y="234" width="100" height="36" rx="18" fill="#4F46E5"/><path d="M252.204 249.182a2.006 2.006 0 0 0-.933-1.509c-.545-.358-1.214-.537-2.007-.537-.58 0-1.087.094-1.521.282-.431.187-.767.445-1.01.773a1.852 1.852 0 0 0-.358 1.119c0 .349.083.65.249.901.17.247.388.454.652.62.264.162.541.296.831.403.29.102.556.185.799.249l1.33.358c.34.089.72.213 1.137.371a5.24 5.24 0 0 1 1.208.645c.388.269.708.614.959 1.036.252.422.377.939.377 1.553 0 .707-.185 1.347-.556 1.918-.366.571-.903 1.024-1.611 1.361-.703.337-1.557.505-2.563.505-.937 0-1.749-.151-2.435-.454-.682-.302-1.219-.724-1.611-1.265-.388-.542-.607-1.17-.658-1.886h1.636c.043.494.209.903.499 1.227.294.32.664.559 1.112.716.452.154.937.23 1.457.23.605 0 1.149-.098 1.63-.294.482-.2.863-.477 1.144-.831.282-.358.422-.775.422-1.253 0-.434-.121-.788-.364-1.061a2.68 2.68 0 0 0-.959-.664 9.961 9.961 0 0 0-1.285-.448l-1.61-.46c-1.023-.294-1.833-.714-2.429-1.259-.597-.546-.895-1.26-.895-2.142 0-.733.198-1.372.594-1.917.401-.55.938-.976 1.611-1.279.677-.306 1.434-.46 2.269-.46.844 0 1.594.151 2.25.454.656.298 1.176.707 1.56 1.227.388.52.592 1.11.613 1.771h-1.534Zm8.385 0v1.278h-5.088v-1.278h5.088Zm-3.605-2.352h1.508v9.358c0 .426.062.745.186.958.128.209.29.35.486.422.2.068.411.102.632.102a2.7 2.7 0 0 0 .41-.025l.255-.051.307 1.355a3.064 3.064 0 0 1-.428.115 3.132 3.132 0 0 1-.697.064c-.426 0-.844-.092-1.253-.275a2.488 2.488 0 0 1-1.01-.837c-.264-.375-.396-.848-.396-1.419v-9.767Zm8.763 12.4a3.991 3.991 0 0 1-1.693-.351 2.909 2.909 0 0 1-1.209-1.03c-.298-.451-.447-.997-.447-1.636 0-.562.111-1.018.332-1.368.222-.354.518-.631.889-.831.371-.2.78-.349 1.227-.447.452-.103.906-.183 1.362-.243.596-.077 1.08-.134 1.451-.173.375-.042.647-.113.818-.211.175-.098.262-.268.262-.511v-.051c0-.631-.173-1.121-.518-1.47-.341-.35-.859-.524-1.553-.524-.72 0-1.285.157-1.694.473-.409.315-.697.652-.863 1.009l-1.432-.511c.256-.596.597-1.061 1.023-1.393.43-.337.899-.571 1.406-.703a5.815 5.815 0 0 1 1.509-.205c.315 0 .677.038 1.086.115.414.072.812.224 1.196.454.387.23.709.577.965 1.042.256.464.383 1.086.383 1.866V259h-1.508v-1.33h-.077c-.102.214-.273.442-.511.684-.239.243-.556.45-.953.62-.396.171-.88.256-1.451.256Zm.231-1.355c.596 0 1.099-.117 1.508-.352a2.39 2.39 0 0 0 1.253-2.077v-1.381c-.064.077-.205.147-.422.211-.213.06-.46.113-.741.16a31.625 31.625 0 0 1-1.445.192 5.737 5.737 0 0 0-1.099.249c-.337.111-.61.279-.819.505-.204.222-.306.524-.306.908 0 .524.193.92.581 1.189.392.264.889.396 1.49.396Zm7.023 1.125v-9.818h1.457v1.483h.102c.179-.486.503-.88.972-1.183a2.865 2.865 0 0 1 1.585-.454c.111 0 .25.003.416.007.166.004.292.01.377.019v1.534a4.15 4.15 0 0 0-.352-.057 3.436 3.436 0 0 0-.569-.045c-.477 0-.903.1-1.278.3a2.264 2.264 0 0 0-.882.818 2.21 2.21 0 0 0-.32 1.183V259h-1.508Zm11.582-9.818v1.278h-5.088v-1.278h5.088Zm-3.605-2.352h1.509v9.358c0 .426.061.745.185.958.128.209.29.35.486.422.2.068.411.102.633.102.166 0 .302-.008.409-.025l.255-.051.307 1.355a3.064 3.064 0 0 1-.428.115 3.132 3.132 0 0 1-.697.064c-.426 0-.844-.092-1.253-.275a2.488 2.488 0 0 1-1.01-.837c-.264-.375-.396-.848-.396-1.419v-9.767Zm9.885 12.375c-.946 0-1.762-.209-2.448-.627a4.207 4.207 0 0 1-1.579-1.764c-.366-.759-.549-1.641-.549-2.646 0-1.006.183-1.892.549-2.659.371-.772.887-1.373 1.547-1.803.665-.435 1.441-.652 2.327-.652.511 0 1.016.085 1.515.256.498.17.952.447 1.361.831.409.379.735.882.978 1.508.243.627.365 1.398.365 2.314v.639h-7.568v-1.304h6.034c0-.554-.111-1.048-.333-1.483a2.508 2.508 0 0 0-.933-1.029c-.401-.251-.874-.377-1.419-.377-.601 0-1.121.149-1.56.448a2.942 2.942 0 0 0-1.003 1.15c-.235.473-.352.98-.352 1.521v.87c0 .741.128 1.37.384 1.885.26.512.62.902 1.08 1.17.46.264.995.396 1.604.396.397 0 .755-.055 1.074-.166.324-.115.603-.285.838-.511a2.33 2.33 0 0 0 .543-.857l1.457.409a3.224 3.224 0 0 1-.773 1.304c-.362.371-.81.661-1.342.87-.533.204-1.132.307-1.797.307Zm6.36-.205v-9.818h1.458v1.483h.102c.179-.486.503-.88.972-1.183a2.862 2.862 0 0 1 1.585-.454c.111 0 .249.003.415.007.167.004.292.01.378.019v1.534a4.307 4.307 0 0 0-.352-.057 3.445 3.445 0 0 0-.569-.045c-.477 0-.903.1-1.278.3a2.264 2.264 0 0 0-.882.818 2.21 2.21 0 0 0-.32 1.183V259h-1.509Z" fill="#fff"/></svg>
